# xmcd
#
# Track frame offsets: 
#        150
#        10927
#        26060
#        41800
#        58505
#        73640
#        86907
#        102890
#        115600
#        131352
#        145035
#        158475
#
# Disc length: 2250 seconds
#
# Revision: 0
# Processed by: cddbd v1.5PL3 Copyright (c) Steve Scherf et al.
# Submitted via: ExactAudioCopy v0.95a5
#
DISCID=9708c80c
DTITLE=The Larry Stephenson Band - Clinch Mountain Mystery
DYEAR=2003
DGENRE=Bluegrass
TTITLE0=Dixieland For Me
TTITLE1=A Heart Never Knows
TTITLE2=Clinch Mountain Mystery
TTITLE3=Why Don't You Haul Off And Love Me
TTITLE4=Cruzin' in Overdrive
TTITLE5=Dirty Ole Alabama Mud
TTITLE6=Someone's Gotta Cry
TTITLE7=Those Gone and Left Me Blues
TTITLE8=The Pretty Blue Dress
TTITLE9=A Memory Of You
TTITLE10=I Can't Bear The Thought Of Losing You
TTITLE11=My Baby Back to Me
EXTD=
EXTT0=
EXTT1=
EXTT2=
EXTT3=
EXTT4=
EXTT5=
EXTT6=
EXTT7=
EXTT8=
EXTT9=
EXTT10=
EXTT11=
PLAYORDER=
